# xmcd
#
# Track frame offsets:
#	150
#	15567
#	36722
#	52330
#	68392
#	83178
#	105139
#	121941
#	139076
#	160011
#	179557
#	197274
#	216626
#	242254
#	261261
#	291187
#
# Disc length: 3897 seconds
#
# Revision: 1
# Processed by: cddbd v1.5.2PL0 Copyright (c) Steve Scherf et al.
# Submitted via: audiograbber 1.83.01
#
DISCID=e10f3710
DTITLE=John Denver - CBA90245
DYEAR=2000
DGENRE=Karaoke
TTITLE0=Take Me Home, Country Roads
TTITLE1=Rocky Mountain High
TTITLE2=Thank God I'm A Country Boy
TTITLE3=Sunshine On My Shoulders
TTITLE4=Annie's Song
TTITLE5=Back Home Again
TTITLE6=I'm Sorry
TTITLE7=Calypso
TTITLE8=My Sweet Lady
TTITLE9=Fly Away
TTITLE10=Like A Sad Song
TTITLE11=Some Days Are Diamonds
TTITLE12=Sweet Surrender
TTITLE13=Looking For Space
TTITLE14=I Want To Live
TTITLE15=Non-Music
EXTD=
EXTT0=
EXTT1=
EXTT2=
EXTT3=
EXTT4=
EXTT5=
EXTT6=
EXTT7=
EXTT8=
EXTT9=
EXTT10=
EXTT11=
EXTT12=
EXTT13=
EXTT14=
EXTT15=
PLAYORDER=
